<svg xmlns="http://www.w3.org/2000/svg" viewBox="0 0 900 600">
  <rect width="900" height="600" fill="#de2910"/>
  <g fill="#ffde00">
    <polygon points="150,120 165.5,168.5 217,168.5 175.25,198.5 190.75,247 150,217 109.25,247 124.75,198.5 83,168.5 134.5,168.5"/>
    <polygon points="300,60 304,72 316,72 306.5,79.5 310.5,91.5 300,84 289.5,91.5 293.5,79.5 284,72 296,72"/>
    <polygon points="360,90 364,102 376,102 366.5,109.5 370.5,121.5 360,114 349.5,121.5 353.5,109.5 344,102 356,102"/>
    <polygon points="360,150 364,162 376,162 366.5,169.5 370.5,181.5 360,174 349.5,181.5 353.5,169.5 344,162 356,162"/>
    <polygon points="300,180 304,192 316,192 306.5,199.5 310.5,211.5 300,204 289.5,211.5 293.5,199.5 284,192 296,192"/>
  </g>
</svg>
